PathFileType	4	(X/Y/Z)	C:\Users\Basilio\Documents\Thesis Gigler\squatting_fais\c3dfiles\076\SJ_pre2\markers_experimental.trc
DataRate	CameraRate	NumFrames	NumMarkers	Units	OrigDataRate	OrigDataStartFrame	OrigNumFrames
200.000000	200.000000	4	61	mm	200.000000	364	1456
Frame#	Time	FHD			LBHD			RBHD			C7			T10			CLAV			LSHO			LUUPA			LMUPA			LDUPA			LLEP			LMEP			LRAD			LUL			LRFIN			RSHO			RUPA1			RMUPA			RDUPA			RLEP			RMEP			RRAD			RUL			RUFIN			LASI			RASI			USACR			LSACR			RSACR			LTHI1			LTHI2			LTHI3			LTHI4			LLFC			LMFC			LTIB1			LTIB2			LTIB3			LTIB4			LLMAL			LMMAL			LHEE			LMT1			LMT2			LMT5			RTHI			RTHI2			RTHI3			RTHI4			RLFC			RMFC			RTIB1			RTIB2			RTIB3			RTIB4			RLMAL			RMMAL			RHEE			RMT1			RMT2			RMT5			
		X1	Y1	Z1	X2	Y2	Z2	X3	Y3	Z3	X4	Y4	Z4	X5	Y5	Z5	X6	Y6	Z6	X7	Y7	Z7	X8	Y8	Z8	X9	Y9	Z9	X10	Y10	Z10	X11	Y11	Z11	X12	Y12	Z12	X13	Y13	Z13	X14	Y14	Z14	X15	Y15	Z15	X16	Y16	Z16	X17	Y17	Z17	X18	Y18	Z18	X19	Y19	Z19	X20	Y20	Z20	X21	Y21	Z21	X22	Y22	Z22	X23	Y23	Z23	X24	Y24	Z24	X25	Y25	Z25	X26	Y26	Z26	X27	Y27	Z27	X28	Y28	Z28	X29	Y29	Z29	X30	Y30	Z30	X31	Y31	Z31	X32	Y32	Z32	X33	Y33	Z33	X34	Y34	Z34	X35	Y35	Z35	X36	Y36	Z36	X37	Y37	Z37	X38	Y38	Z38	X39	Y39	Z39	X40	Y40	Z40	X41	Y41	Z41	X42	Y42	Z42	X43	Y43	Z43	X44	Y44	Z44	X45	Y45	Z45	X46	Y46	Z46	X47	Y47	Z47	X48	Y48	Z48	X49	Y49	Z49	X50	Y50	Z50	X51	Y51	Z51	X52	Y52	Z52	X53	Y53	Z53	X54	Y54	Z54	X55	Y55	Z55	X56	Y56	Z56	X57	Y57	Z57	X58	Y58	Z58	X59	Y59	Z59	X60	Y60	Z60	X61	Y61	Z61	

365	1.82	-35.58326721191407	1270.4619140625	-881.4259033203127	-182.5707244873047	1219.574096679688	-980.255310058594	-170.464340209961	1223.803466796875	-827.957946777344	-251.3105773925782	1149.231201171875	-908.097351074219	-456.8022766113282	912.006530761719	-930.5252075195315	-176.2137298583985	1016.666687011719	-906.543395996094	-192.0693664550782	1069.361206054688	-1075.752075195313	-262.1910095214844	947.0019531250002	-1217.501953125	-279.8181762695313	904.3800048828127	-1202.1728515625	-296.6647338867188	902.720886230469	-1260.36376953125	-331.3696899414063	870.8770141601565	-1293.712890625	-406.1709289550782	915.7156372070315	-1280.880981445313	-480.8542785644532	756.4893798828126	-1138.36181640625	-448.186004638672	703.8979492187501	-1161.80810546875	-436.6655273437501	752.5521240234376	-1096.190551757813	-218.391342163086	1060.209716796875	-744.9481201171876	-321.1339416503907	973.5533447265627	-602.8098144531251	-320.5764770507813	922.6508789062502	-605.4627075195314	-360.6698913574219	931.0159912109377	-560.9316406250001	-398.7658081054689	871.1000976562502	-540.4805297851564	-470.7483520507814	907.1394042968752	-580.5496215820314	-492.5016479492189	750.6270751953126	-729.7872924804689	-440.6747131347657	747.6129760742189	-755.9252319335939	-460.2655334472657	700.3278198242189	-697.3270874023439	-418.5677795410157	690.8561401367189	-1021.345458984375	-412.791473388672	699.5070190429689	-833.9033203125002	-524.7928466796876	826.8074951171877	-931.5440673828127	-548.8754882812501	807.7413330078127	-959.6779785156252	-550.4296875000001	806.3223876953127	-902.432067871094	-454.0828247070314	630.1625976562501	-1133.303833007813	-375.5000915527344	599.9752807617189	-1138.130126953125	-343.9163513183594	627.9052734375001	-1112.133666992188	-358.0373840332032	542.0485839843751	-1145.81884765625	-251.8635711669922	428.6868896484376	-1139.85595703125	-239.634994506836	420.3553466796876	-1030.589721679688	-252.7073059082032	286.0367431640626	-1071.827270507813	-285.8561096191407	241.5596466064454	-1140.417724609375	-263.2728576660157	235.6198730468751	-1100.305541992188	-312.0317077636719	173.9564208984375	-1071.743530273438	-399.0620727539064	78.48363494873048	-1138.417114257813	-382.3510742187501	86.36947631835939	-1052.205688476563	-463.8368225097657	43.03959655761719	-1095.820190429688	-253.9873657226563	54.14583206176759	-1066.242797851563	-246.3820495605469	54.75394439697267	-1104.638427734375	-262.1109619140626	43.85077667236329	-1156.433837890625	-400.6933593750001	557.5948486328126	-708.5136718750001	-333.5563354492188	547.6843872070314	-697.4685668945314	-310.8454895019532	571.7771606445314	-709.9624023437501	-297.1603393554688	471.2933349609376	-702.5303955078126	-261.5717163085938	431.8861389160157	-699.2037353515626	-238.894271850586	429.3752746582032	-804.3311157226565	-237.2815856933594	296.4436645507813	-717.7035522460939	-332.3144836425782	244.7307586669922	-693.5631713867189	-290.5378723144532	228.2964172363282	-709.5801391601564	-295.8973388671876	183.5908508300782	-746.5137329101564	-401.092498779297	76.7919387817383	-716.9766845703126	-380.4114990234376	89.07321929931642	-800.5215454101565	-461.6580200195314	50.03041076660158	-764.5609741210939	-254.1121673583985	53.056453704834	-778.8057861328127	-251.4452209472657	57.30816650390626	-733.2651977539064	-277.8681640625001	34.37530899047852	-680.6812744140626	
366	1.825	-35.2429313659668	1268.409423828125	-881.6291503906252	-182.2947845458985	1217.01806640625	-980.425964355469	-170.0296020507813	1221.505981445313	-828.1276855468752	-250.6394805908204	1146.814575195313	-908.0102539062502	-456.5715942382814	910.152038574219	-930.2946777343752	-175.5708465576172	1014.168518066406	-906.5162353515627	-191.6643829345703	1066.90234375	-1075.7421875	-261.7721557617188	944.7813110351565	-1217.625732421875	-279.3453979492188	902.025573730469	-1202.115844726563	-295.8771972656251	900.6245117187502	-1260.428100585938	-330.9349975585938	868.6256103515627	-1293.632080078125	-405.7456054687501	914.2596435546877	-1280.643432617188	-481.0573730468751	755.2135009765626	-1138.318237304688	-448.5630187988282	702.4567260742189	-1161.585083007813	-437.0150146484376	751.3992309570314	-1096.047607421875	-217.5783386230469	1058.034912109375	-744.8963623046876	-320.6082458496094	971.6502075195315	-602.7708129882814	-320.1794738769532	920.7576293945315	-605.2544555664064	-360.2789306640626	929.365173339844	-560.8185424804689	-398.4832763671876	869.731140136719	-540.3319091796876	-469.5986938476564	905.425964355469	-580.5263061523439	-492.8464965820314	749.2984619140626	-729.6021728515626	-440.7059936523439	746.4239501953126	-755.8688354492189	-460.4114379882814	699.1234741210939	-697.0490722656251	-419.2444152832032	688.7271728515626	-1021.156921386719	-413.7171325683595	697.0043945312501	-833.6531982421877	-524.7811279296876	825.1700439453127	-931.2330322265627	-548.8988037109376	806.3388671875002	-959.4605712890627	-550.5275878906251	804.8415527343752	-902.2084960937502	-454.7827758789064	629.3031005859376	-1133.36962890625	-375.9365539550782	599.4371948242189	-1138.019775390625	-344.4743347167969	627.3547363281251	-1111.945678710938	-357.4573974609376	541.5092163085939	-1145.491455078125	-251.6905212402344	428.5049743652345	-1139.9775390625	-239.4207611083985	420.1867065429689	-1030.787109375	-252.4960479736329	285.8787841796876	-1072	-285.8754882812501	241.3025207519532	-1140.463989257813	-263.1163635253907	235.5309753417969	-1100.321044921875	-311.8708496093751	173.8999328613282	-1071.770874023438	-398.9889526367189	78.50442504882814	-1138.454467773438	-382.2422790527344	86.45572662353517	-1052.216064453125	-464.1892700195314	43.1963005065918	-1095.816284179688	-253.9986572265626	54.10791015625001	-1066.271728515625	-246.5227508544922	54.79101181030275	-1104.703125	-262.1179504394532	43.81350708007813	-1156.464233398438	-400.9287719726564	556.5789184570314	-708.4268798828126	-333.6224365234376	547.2393798828126	-697.3400268554689	-310.9755249023438	571.3740844726564	-709.9019165039064	-297.5213012695313	470.3047485351564	-702.5469970703126	-261.1792602539063	431.6219787597657	-699.0498657226564	-238.3898010253907	429.141815185547	-804.1467285156252	-236.9226531982422	296.1427612304688	-717.6544189453126	-332.0364685058594	244.6180267333985	-693.4819946289064	-290.2897033691407	228.1085205078126	-709.5189208984376	-296.0224609375001	183.5887756347657	-746.5770874023439	-401.085906982422	76.8056106567383	-716.9752197265626	-380.3013916015626	89.10580444335939	-800.500183105469	-461.6562500000001	49.99494934082033	-764.5726318359376	-254.0959167480469	53.03104782104494	-778.8005371093752	-251.3460845947266	57.19198608398439	-733.2654418945314	-277.8747863769532	34.49742507934571	-680.6239013671876	
367	1.83	-34.92557907104493	1266.246459960938	-881.743347167969	-181.6880645751953	1214.650634765625	-980.4317016601565	-169.5609741210938	1219.221801757813	-828.2934570312502	-249.9756774902344	1144.6884765625	-908.073181152344	-456.320526123047	908.3615722656252	-930.1348266601565	-175.2352294921875	1011.8701171875	-906.507507324219	-191.6705169677735	1064.538208007813	-1075.908081054688	-261.3454284667969	942.5848388671877	-1217.5078125	-278.9906921386719	899.9721679687502	-1202.219604492188	-295.9805297851563	898.3965454101565	-1260.463012695313	-330.6116333007813	866.6367797851565	-1293.749389648438	-405.3646545410157	912.3296508789065	-1281.388916015625	-481.2879333496095	754.1690673828126	-1138.320190429688	-448.9271850585939	701.1359863281251	-1161.42333984375	-437.6940307617189	750.4121704101564	-1096.070434570313	-217.0081176757813	1055.542724609375	-744.9938354492189	-320.0158386230469	969.9868164062502	-602.6638183593751	-319.7474060058594	918.965759277344	-605.0562744140626	-359.8002929687501	927.7520751953127	-560.6562500000001	-398.2677612304689	868.0852661132815	-540.0328369140626	-470.0372009277345	904.520935058594	-580.0815429687501	-492.9546813964845	748.1160888671876	-729.4034423828126	-440.9205627441407	744.9623413085939	-755.7029418945314	-460.7691040039064	697.7579956054689	-696.7885131835939	-420.3477783203126	686.1546630859376	-1020.825317382813	-414.8343811035157	694.5898437500001	-833.2910156250002	-524.6701049804689	823.6662597656252	-931.1152954101565	-548.9645385742189	805.0037231445315	-959.2107543945315	-550.6557006835939	803.5611572265627	-902.051452636719	-455.2097778320314	628.5688476562501	-1133.263549804688	-376.4177856445313	598.8657226562501	-1138.000122070313	-344.9597167968751	626.9782104492189	-1111.855590820313	-357.6730346679688	540.9682617187501	-1145.50390625	-251.6187591552735	428.4058227539064	-1140.117553710938	-239.1833801269532	420.0319824218751	-1030.966796875	-252.2704467773438	285.7620239257813	-1072.147094726563	-285.6609497070313	241.2647094726563	-1140.549194335938	-262.9922485351563	235.4801940917969	-1100.442993164063	-311.8121337890626	173.838623046875	-1071.855102539063	-399.0578002929689	78.48916625976564	-1138.432250976563	-382.2401428222657	86.43936157226564	-1052.2197265625	-463.8789978027345	43.06166458129884	-1095.7734375	-254.0193939208985	54.12157440185548	-1066.307983398438	-246.4474182128907	54.77681350708009	-1104.733276367188	-261.9784851074219	43.77113342285157	-1156.408813476563	-401.1187133789064	555.8708496093751	-708.2047729492189	-333.7897949218751	546.6139526367189	-697.2023925781251	-311.2434997558594	570.9185791015626	-709.7857055664064	-296.9722900390626	470.5336914062501	-702.1188964843751	-260.8276367187501	431.4294433593751	-698.9080810546876	-238.0122222900391	428.8603820800782	-803.8254394531252	-236.6776885986329	295.8887634277344	-717.6182861328126	-331.8146972656251	244.4696807861329	-693.3602905273439	-290.0518493652344	227.9364013671876	-709.4804077148439	-295.8478698730469	183.4248962402344	-746.5963134765626	-401.0917968750001	76.79566192626955	-716.9728393554689	-380.3644104003907	89.09377288818361	-800.5025024414065	-461.6176757812501	49.98470687866212	-764.5586547851564	-254.0962371826172	53.0566749572754	-778.8254394531252	-251.3527984619141	57.19604110717775	-733.2643432617189	-277.8901672363282	34.49166107177735	-680.6722412109376	
368	1.835	-34.58445358276368	1264.279541015625	-881.8945922851565	-181.3970031738282	1212.35693359375	-980.5534667968752	-169.0736541748047	1216.96337890625	-828.3767700195315	-249.3722534179688	1142.555908203125	-908.0362548828127	-456.0065917968751	906.6164550781252	-929.9660644531252	-174.6041107177735	1009.568725585938	-906.3688964843752	-190.4095916748047	1062.218505859375	-1075.607543945313	-260.8140563964844	940.344177246094	-1217.527221679688	-278.4320068359376	897.6529541015627	-1202.286010742188	-295.1344604492188	896.5148925781252	-1260.50830078125	-330.3030090332032	864.5532226562502	-1293.900024414063	-404.822723388672	910.473815917969	-1281.423461914063	-481.6535034179689	752.8969726562501	-1138.263916015625	-449.403533935547	700.0244750976564	-1161.449584960938	-437.6636657714845	748.9556884765626	-1095.807006835938	-216.2147979736329	1053.52490234375	-744.9248657226564	-319.5466308593751	968.0620727539065	-602.4812011718751	-319.4070129394532	917.197937011719	-604.9083251953126	-359.4219665527344	926.0774536132815	-560.4587402343751	-398.0062866210939	866.7186279296877	-539.8723754882814	-468.8681030273439	902.9454345703127	-580.0379028320314	-493.1494140625001	746.7902832031251	-729.1933593750001	-441.0767822265626	743.5357666015626	-755.5848999023439	-461.0216064453126	696.5201416015626	-696.5236816406251	-421.0230407714845	683.8572998046876	-1020.295104980469	-416.0015563964845	692.2770996093751	-832.7091064453127	-524.5579223632814	822.1791992187502	-930.8896484375002	-548.9489746093751	803.6604003906252	-959.0728149414065	-550.8189086914064	802.232116699219	-901.8272705078127	-455.8308105468751	627.6466064453126	-1133.273681640625	-376.8038024902344	598.3388671875001	-1137.926025390625	-345.5180053710938	626.5040283203126	-1111.719116210938	-357.9154968261719	540.3541259765626	-1144.923583984375	-251.4044342041016	428.2557373046876	-1140.245361328125	-238.9826354980469	419.9080505371095	-1031.154296875	-252.0725860595704	285.6192932128907	-1072.184448242188	-285.6390075683594	241.1363677978516	-1140.612548828125	-262.8510131835938	235.3385925292969	-1100.420654296875	-311.6767578125001	173.7966766357422	-1071.86962890625	-399.0843811035157	78.4891815185547	-1138.457885742188	-382.2073669433594	86.46242523193361	-1052.23095703125	-464.1895446777345	43.25875854492188	-1095.834716796875	-253.9499969482422	54.12973022460939	-1066.284423828125	-246.3783264160157	54.69791793823244	-1104.707885742188	-261.9736328125001	43.73242950439454	-1156.424072265625	-401.2802124023439	555.1543579101564	-708.0673217773439	-334.0132751464844	546.0615844726564	-697.1085815429689	-311.4229431152344	570.5190429687501	-709.6396484375001	-297.0402221679688	469.7944641113282	-701.9819335937501	-260.5953674316407	431.1765441894532	-698.7735595703126	-237.5759887695313	428.6123657226564	-803.760437011719	-236.6321868896485	295.7412109375001	-717.5486450195314	-331.5470275878907	244.3076324462891	-693.2737426757814	-289.8595275878907	227.7540435791016	-709.4323120117189	-295.7031860351563	183.3183746337891	-746.5499877929689	-401.0537109375001	76.77849578857423	-716.9652099609376	-380.2257385253907	89.03163909912111	-800.463317871094	-461.6698303222657	50.01570892333986	-764.5558471679689	-254.0390777587891	53.07048797607423	-778.831237792969	-251.4508514404297	57.3356285095215	-733.2800292968751	-277.9060668945313	34.38250732421876	-680.6993408203126	
